HIERARCHY
ROOT Hips
{
	OFFSET 40.956902 -9.158145 92.908897
	CHANNELS 6 Xposition Yposition Zposition Xrotation Yrotation Zrotation
	JOINT spine
	{
		OFFSET 0.000000 -0.429886 7.475601
		CHANNELS 3 Xrotation Yrotation Zrotation
		JOINT spine1
		{
			OFFSET 0.000000 -0.000002 9.923012
			CHANNELS 3 Xrotation Yrotation Zrotation
			JOINT spine2
			{
				OFFSET 0.000000 -0.000001 9.508041
				CHANNELS 3 Xrotation Yrotation Zrotation
				JOINT Neck
				{
					OFFSET 0.000000 -1.163845 24.411102
					CHANNELS 3 Xrotation Yrotation Zrotation
					JOINT Head
					{
						OFFSET 0.000000 -0.000001 7.375229
						CHANNELS 3 Xrotation Yrotation Zrotation
						End Site
						{
							OFFSET 0.000000 5.887407 17.852203
						}
					}
				}
				JOINT RightShoulder
				{
					OFFSET -4.003559 0.557467 10.267899
					CHANNELS 3 Xrotation Yrotation Zrotation
					JOINT RightArm
					{
						OFFSET 0.000000 -0.000003 13.467300
						CHANNELS 3 Xrotation Yrotation Zrotation
						JOINT RightArmRoll
						{
							OFFSET 0.000000 -0.000001 6.798584
							CHANNELS 3 Xrotation Yrotation Zrotation
							JOINT RightForeArm
							{
								OFFSET 0.000000 -0.000003 19.801804
								CHANNELS 3 Xrotation Yrotation Zrotation
								JOINT RightForeArmRoll
								{
									OFFSET 0.000000 -0.000001 7.629044
									CHANNELS 3 Xrotation Yrotation Zrotation
									JOINT RightHand
									{
										OFFSET 0.000000 -0.000003 15.309799
										CHANNELS 3 Xrotation Yrotation Zrotation
										End Site
										{
											OFFSET 0.000000 0.000000 0.100006
										}
									}
								}
							}
						}
					}
				}
				JOINT LeftShoulder
				{
					OFFSET 4.003559 0.557467 10.267899
					CHANNELS 3 Xrotation Yrotation Zrotation
					JOINT LeftArm
					{
						OFFSET 0.000000 -0.000003 13.467300
						CHANNELS 3 Xrotation Yrotation Zrotation
						JOINT LeftArmRoll
						{
							OFFSET 0.000000 -0.000001 6.798584
							CHANNELS 3 Xrotation Yrotation Zrotation
							JOINT LeftForeArm
							{
								OFFSET 0.000000 -0.000003 19.801804
								CHANNELS 3 Xrotation Yrotation Zrotation
								JOINT LeftForeArmRoll
								{
									OFFSET 0.000000 -0.000001 7.629044
									CHANNELS 3 Xrotation Yrotation Zrotation
									JOINT LeftHand
									{
										OFFSET 0.000000 -0.000003 15.309799
										CHANNELS 3 Xrotation Yrotation Zrotation
										End Site
										{
											OFFSET 0.000000 0.000000 0.100006
										}
									}
								}
							}
						}
					}
				}
			}
		}
	}
	JOINT RightUpLeg
	{
		OFFSET -6.626091 1.019270 -1.215050
		CHANNELS 3 Xrotation Yrotation Zrotation
		JOINT RightUpLegRoll
		{
			OFFSET 0.000000 -0.000003 17.951698
			CHANNELS 3 Xrotation Yrotation Zrotation
			JOINT RightLeg
			{
				OFFSET 0.000000 0.000004 -22.230400
				CHANNELS 3 Xrotation Yrotation Zrotation
				JOINT RightLegRoll
				{
					OFFSET 0.000000 -0.000004 22.303200
					CHANNELS 3 Xrotation Yrotation Zrotation
					JOINT RightFoot
					{
						OFFSET 0.000000 -0.000003 18.563606
						CHANNELS 3 Xrotation Yrotation Zrotation
						JOINT RightToeBase
						{
							OFFSET 0.000000 -0.000003 15.518295
							CHANNELS 3 Xrotation Yrotation Zrotation
							End Site
							{
								OFFSET 0.006577 0.866262 7.515396
							}
						}
					}
				}
			}
		}
	}
	JOINT LeftUpLeg
	{
		OFFSET 6.626091 1.019270 -1.215050
		CHANNELS 3 Xrotation Yrotation Zrotation
		JOINT LeftUpLegRoll
		{
			OFFSET 0.000000 -0.000003 17.951797
			CHANNELS 3 Xrotation Yrotation Zrotation
			JOINT LeftLeg
			{
				OFFSET 0.000000 -0.000004 22.230301
				CHANNELS 3 Xrotation Yrotation Zrotation
				JOINT LeftLegRoll
				{
					OFFSET 0.000000 -0.000003 22.509308
					CHANNELS 3 Xrotation Yrotation Zrotation
					JOINT LeftFoot
					{
						OFFSET 0.000000 -0.000004 18.357498
						CHANNELS 3 Xrotation Yrotation Zrotation
						JOINT LeftToeBase
						{
							OFFSET 0.000000 -0.000002 15.518295
							CHANNELS 3 Xrotation Yrotation Zrotation
							End Site
							{
								OFFSET -0.029476 0.866261 7.515381
							}
						}
					}
				}
			}
		}
	}
}
MOTION
Frames: 7
Frame Time: 0.041667
40.873295 -8.419420 93.196808 0.438255 -2.590523 75.033610 -0.924010 0.127118 0.447587 2.155511 0.249083 0.883740 3.800519 0.259646 0.880700 -5.141873 12.697867 -0.721519 5.029537 -14.258845 -1.234254 -12.962074 -42.203527 -14.574498 86.780531 -16.335965 91.269496 -0.000000 0.000001 -0.000006 70.054976 -3.990225 -0.540485 -0.000011 0.000008 -2.999991 -4.999821 -7.998690 -0.000133 -17.193613 71.888431 20.449120 99.175767 68.589306 -115.823097 -0.000001 0.000002 0.000009 8.653471 6.578527 0.411831 0.000007 -0.000118 3.003980 -4.999977 7.999592 -0.000081 2.238787 -181.409947 -1.451254 -179.999991 0.000005 -1.124996 171.347316 -1.792379 -0.557726 -0.000004 0.000007 0.151984 70.075002 6.846914 2.175761 26.923619 -7.381916 -0.865209 -12.146055 -182.361994 2.307601 -0.000004 -0.000004 -0.868352 -11.120079 3.238215 0.668209 -0.000003 -0.000000 -0.135961 68.723287 -6.848261 -2.249743 25.456959 7.355623 -0.000006 
40.884895 -8.389189 93.199303 0.438428 -2.590774 74.996911 -0.923844 0.125262 0.446695 2.155590 0.245451 0.881502 3.800599 0.255986 0.878506 -5.125739 12.687917 -0.689743 5.052614 -14.229456 -1.199427 -12.936749 -42.314999 -14.546761 86.868969 -16.613419 91.032153 0.000001 0.000002 -0.000002 70.096066 -3.975128 -0.541055 -0.000008 0.000012 -2.999991 -4.999820 -7.998689 -0.000130 -17.237147 71.925662 20.497422 99.294558 68.602748 -116.020189 -0.000001 0.000001 0.000009 8.514687 6.520446 0.421783 0.000009 -0.000118 3.003970 -4.999977 7.999590 -0.000081 2.225917 -181.401956 -1.448836 -179.999991 0.000005 -1.124996 171.337549 -1.789362 -0.558577 -0.000005 0.000007 0.152742 70.072072 6.847041 2.175467 26.918360 -7.381870 -0.862212 -12.143380 -182.364944 2.301006 -0.000005 -0.000004 -0.868392 -11.117266 3.246490 0.668986 -0.000002 -0.000001 -0.135999 68.722037 -6.848321 -2.249931 25.456959 7.355623 -0.000005 
40.873596 -8.393338 93.196793 0.438289 -2.590333 74.960609 -0.923769 0.123309 0.445817 2.155459 0.241648 0.879272 3.800456 0.252154 0.876324 -5.112617 12.678303 -0.658576 5.078334 -14.199516 -1.165425 -12.912472 -42.425344 -14.520417 86.958157 -16.893394 90.793192 -0.000000 0.000000 -0.000006 70.134315 -3.959088 -0.541578 -0.000011 0.000011 -2.999989 -4.999818 -7.998690 -0.000133 -17.283937 71.963734 20.549288 99.418246 68.616702 -116.225040 -0.000003 0.000003 0.000010 8.380195 6.459604 0.431742 0.000008 -0.000118 3.003960 -4.999979 7.999592 -0.000081 2.213548 -181.394976 -1.447135 -179.999991 0.000005 -1.124996 171.329558 -1.785380 -0.559223 -0.000005 0.000007 0.153515 70.068404 6.847177 2.175317 26.912289 -7.381813 -0.858815 -12.141405 -182.367895 2.293721 -0.000004 -0.000004 -0.868430 -11.114762 3.255066 0.669824 -0.000003 -0.000001 -0.136065 68.721211 -6.848373 -2.250292 25.456962 7.355625 -0.000006 
40.874901 -8.386636 93.209496 0.437933 -2.589301 74.924785 -0.923775 0.121296 0.444939 2.155138 0.237743 0.877057 3.800136 0.248221 0.874158 -5.102068 12.669140 -0.628007 5.106173 -14.169431 -1.132210 -12.889185 -42.534907 -14.495393 87.048063 -17.176029 90.553610 0.000002 -0.000001 -0.000004 70.170679 -3.942206 -0.542131 -0.000010 0.000008 -2.999991 -4.999821 -7.998689 -0.000128 -17.333188 72.002324 20.603863 99.547029 68.631039 -116.437486 -0.000002 0.000002 0.000010 8.249649 6.396403 0.441652 0.000008 -0.000118 3.003951 -4.999977 7.999590 -0.000080 2.201507 -181.387995 -1.445951 -179.999991 0.000005 -1.126006 171.322919 -1.782377 -0.559975 -0.000005 0.000007 0.154290 70.064313 6.847305 2.174990 26.905923 -7.381750 -0.855124 -12.140346 -182.372785 2.286358 -0.000004 -0.000005 -0.868472 -11.112554 3.263884 0.670710 -0.000003 -0.000000 -0.136157 68.720903 -6.848425 -2.250623 25.456962 7.355622 -0.000005 
40.879799 -8.375087 93.149796 0.437449 -2.587744 74.889555 -0.923851 0.119258 0.444052 2.154648 0.233807 0.874850 3.799655 0.244257 0.871999 -5.093671 12.660331 -0.598047 5.135565 -14.139807 -1.099721 -12.866794 -42.643863 -14.471579 87.138802 -17.461157 90.314485 0.000002 0.000001 -0.000005 70.206306 -3.924584 -0.542685 -0.000012 0.000007 -2.999992 -4.999818 -7.998689 -0.000129 -17.384011 72.040976 20.660159 99.680983 68.645846 -116.656995 -0.000001 0.000001 0.000010 8.122766 6.331228 0.451478 0.000005 -0.000118 3.003940 -4.999977 7.999590 -0.000080 2.189650 -181.382012 -1.445205 -179.999991 0.000005 -1.126008 171.317291 -1.778393 -0.560542 -0.000006 0.000007 0.155058 70.059798 6.847453 2.174695 26.899150 -7.381696 -0.851290 -12.139878 -182.376692 2.278452 -0.000003 -0.000004 -0.868516 -11.110651 3.272883 0.671628 -0.000003 -0.000001 -0.136268 68.720835 -6.848528 -2.250843 25.456964 7.355624 -0.000006 
40.862099 -8.365368 93.158897 0.436929 -2.585730 74.854721 -0.923991 0.117233 0.443158 2.154008 0.229910 0.872658 3.799014 0.240333 0.869853 -5.086986 12.652090 -0.568691 5.165981 -14.111156 -1.067904 -12.845198 -42.752432 -14.448849 87.230436 -17.748697 90.076924 0.000002 -0.000001 -0.000002 70.241809 -3.906357 -0.543355 -0.000012 0.000009 -2.999989 -4.999818 -7.998688 -0.000131 -17.435735 72.079458 20.717420 99.819977 68.661330 -116.883006 -0.000003 0.000003 0.000010 7.999199 6.264475 0.461217 0.000005 -0.000117 3.003930 -4.999978 7.999591 -0.000081 2.177780 -181.376029 -1.444709 -179.999991 0.000005 -1.126007 171.312209 -1.774413 -0.561106 -0.000006 0.000006 0.155803 70.055085 6.847631 2.174417 26.892377 -7.381637 -0.847407 -12.140026 -182.381596 2.270587 -0.000004 -0.000005 -0.868564 -11.109051 3.281979 0.672565 -0.000003 -0.000001 -0.136402 68.720965 -6.848610 -2.251154 25.456962 7.355623 -0.000006 
40.870697 -8.340757 93.152092 0.436470 -2.583366 74.820378 -0.924185 0.115253 0.442245 2.153257 0.226125 0.870481 3.798264 0.236520 0.867718 -5.081593 12.644321 -0.539943 5.196854 -14.083893 -1.036712 -12.824346 -42.860940 -14.427122 87.323067 -18.038386 89.841829 0.000000 0.000002 -0.000003 70.278432 -3.887576 -0.544498 -0.000006 0.000007 -2.999989 -4.999815 -7.998688 -0.000131 -17.487408 72.117311 20.774609 99.964326 68.677443 -117.115423 -0.000005 0.000003 0.000010 7.878631 6.196527 0.470812 0.000006 -0.000118 3.003930 -4.999977 7.999590 -0.000080 2.165750 -181.370045 -1.444335 -179.999991 0.000005 -1.126007 171.307346 -1.770434 -0.561648 -0.000005 0.000007 0.156510 70.050263 6.847771 2.174240 26.885709 -7.381594 -0.843613 -12.140771 -182.386473 2.262718 -0.000004 -0.000004 -0.868610 -11.107751 3.291131 0.673518 -0.000003 -0.000001 -0.136545 68.721286 -6.848626 -2.251536 25.456960 7.355622 -0.000005 
